<svg xmlns="http://www.w3.org/2000/svg" xmlns:xlink="http://www.w3.org/1999/xlink" width="98.139" height="29.649" viewBox="0 0 98.139 29.649"><defs><linearGradient id="a" x1="3.899" y1="-1.735" x2="0.151" y2="0.742" gradientUnits="objectBoundingBox"><stop offset="0" stop-color="#444bfa"/><stop offset="1" stop-color="#036"/></linearGradient><linearGradient id="b" x1="4.701" y1="-1.435" x2="-1.134" y2="1.123" xlink:href="#a"/><linearGradient id="c" x1="1.826" y1="-0.814" x2="-0.717" y2="1.731" xlink:href="#a"/></defs><g transform="translate(-2853.61 -6256.42)"><path d="M2877.518,6258.685a14.624,14.624,0,0,1,5.807,6.686l-9.107,4.752q-1.188-4.62-5.168-4.619a4.83,4.83,0,0,0-3.673,1.539,6.465,6.465,0,0,0,0,8.271,4.83,4.83,0,0,0,3.673,1.539q3.849,0,5.125-4.42l9.1,4.728a14.649,14.649,0,0,1-5.806,6.642,16.082,16.082,0,0,1-8.424,2.266,15.388,15.388,0,0,1-10.931-4.091,15.083,15.083,0,0,1,0-21.511,15.488,15.488,0,0,1,10.931-4.047A16.162,16.162,0,0,1,2877.518,6258.685Z" fill="url(#a)"/><path d="M2905.714,6256.772v9.7a6.83,6.83,0,0,0-1.672-.243,6.909,6.909,0,0,0-4.377,1.65,7.746,7.746,0,0,0-2.793,4.289,9.8,9.8,0,0,0-.175,2.067v11.085h-10.074v-28.108H2896.7v1.694q1.207-2.289,7.147-2.288Q2904.263,6256.618,2905.714,6256.772Z" fill="url(#b)"/><path d="M2949.2,6259.1a8.582,8.582,0,0,1,2.552,6.533v19.684h-10.074v-18.056a2.6,2.6,0,0,0-.924-2,4.24,4.24,0,0,0-2.9-.946,5.6,5.6,0,0,0-2.969.967v20.037H2924.8v-18.056a2.6,2.6,0,0,0-.924-2,4.272,4.272,0,0,0-2.925-.946,5.909,5.909,0,0,0-2.946.924v20.08h-10.074v-28.108h10.074v.946a11.643,11.643,0,0,1,6.2-1.694q6.114,0,8.533,3.035a14.239,14.239,0,0,1,8.358-3.035Q2946.4,6256.464,2949.2,6259.1Z" fill="url(#c)"/></g></svg>